<svg width="245" height="185" viewBox="0 0 245 185" fill="none" xmlns="http://www.w3.org/2000/svg">
  <g filter="url(#filter0_d_2117_19750)">
    <path
      d="M34.5 128L30.6818 138.182L20.5 142L30.6818 145.818L34.5 156L38.3182 145.818L48.5 142L38.3182 138.182L34.5 128Z"
      fill="white" />
  </g>
  <g filter="url(#filter1_d_2117_19750)">
    <path
      d="M210.5 31L206.682 41.1818L196.5 45L206.682 48.8182L210.5 59L214.318 48.8182L224.5 45L214.318 41.1818L210.5 31Z"
      fill="white" />
  </g>
  <g filter="url(#filter2_d_2117_19750)">
    <path
      d="M191 142L188.409 148.909L181.5 151.5L188.409 154.091L191 161L193.591 154.091L200.5 151.5L193.591 148.909L191 142Z"
      fill="white" />
  </g>
  <g filter="url(#filter3_d_2117_19750)">
    <path d="M51 16L48.4091 22.9091L41.5 25.5L48.4091 28.0909L51 35L53.5909 28.0909L60.5 25.5L53.5909 22.9091L51 16Z"
      fill="white" />
  </g>
  <path
    d="M212.5 87L210.864 91.3636L206.5 93L210.864 94.6364L212.5 99L214.136 94.6364L218.5 93L214.136 91.3636L212.5 87Z"
    fill="white" />
  <path
    d="M14.5 112L12.8636 116.364L8.5 118L12.8636 119.636L14.5 124L16.1364 119.636L20.5 118L16.1364 116.364L14.5 112Z"
    fill="white" />
  <path
    d="M27.0806 59.5806C27.0806 59.4266 27.0195 59.279 26.9106 59.1701C26.8017 59.0612 26.654 59 26.5 59C26.346 59 26.1983 59.0612 26.0894 59.1701C25.9805 59.279 25.9194 59.4266 25.9194 59.5806V63.5987L23.8995 61.5781C23.8459 61.5226 23.7818 61.4784 23.7109 61.448C23.6401 61.4176 23.5639 61.4017 23.4868 61.401C23.4097 61.4004 23.3332 61.4151 23.2619 61.4443C23.1906 61.4736 23.1257 61.5167 23.0713 61.5713C23.0168 61.6258 22.9737 61.6907 22.9445 61.762C22.9154 61.8334 22.9007 61.9099 22.9014 61.987C22.9021 62.0641 22.9182 62.1402 22.9486 62.2111C22.9791 62.2819 23.0234 62.3459 23.0788 62.3995L25.0979 64.4194H21.0806C20.9266 64.4194 20.779 64.4805 20.6701 64.5894C20.5612 64.6983 20.5 64.846 20.5 65C20.5 65.154 20.5612 65.3017 20.6701 65.4106C20.779 65.5195 20.9266 65.5806 21.0806 65.5806H25.0987L23.0781 67.6005C23.0226 67.6541 22.9784 67.7182 22.948 67.7891C22.9176 67.8599 22.9017 67.9361 22.901 68.0132C22.9004 68.0903 22.9151 68.1668 22.9443 68.2381C22.9736 68.3094 23.0167 68.3743 23.0713 68.4287C23.1258 68.4832 23.1907 68.5263 23.262 68.5555C23.3334 68.5846 23.4099 68.5993 23.487 68.5986C23.5641 68.5979 23.6402 68.5818 23.7111 68.5514C23.7819 68.5209 23.8459 68.4766 23.8995 68.4212L25.9194 66.4021V70.4194C25.9194 70.5734 25.9805 70.721 26.0894 70.8299C26.1983 70.9388 26.346 71 26.5 71C26.654 71 26.8017 70.9388 26.9106 70.8299C27.0195 70.721 27.0806 70.5734 27.0806 70.4194V66.4013L29.1005 68.4219C29.1541 68.4774 29.2182 68.5216 29.2891 68.552C29.3599 68.5824 29.4361 68.5983 29.5132 68.599C29.5903 68.5996 29.6668 68.5849 29.7381 68.5557C29.8094 68.5264 29.8743 68.4833 29.9287 68.4287C29.9832 68.3742 30.0263 68.3093 30.0555 68.238C30.0846 68.1666 30.0993 68.0901 30.0986 68.013C30.0979 67.9359 30.0818 67.8598 30.0514 67.7889C30.0209 67.7181 29.9766 67.6541 29.9212 67.6005L27.9021 65.5806H31.9194C32.0734 65.5806 32.221 65.5195 32.3299 65.4106C32.4388 65.3017 32.5 65.154 32.5 65C32.5 64.846 32.4388 64.6983 32.3299 64.5894C32.221 64.4805 32.0734 64.4194 31.9194 64.4194H27.9013L29.9219 62.3995C30.0277 62.2899 30.0861 62.1432 30.0847 61.991C30.0833 61.8387 30.0222 61.6931 29.9145 61.5855C29.8068 61.4779 29.6611 61.4169 29.5089 61.4157C29.3566 61.4144 29.21 61.473 29.1005 61.5788L27.0806 63.5979V59.5806Z"
    fill="white" />
  <path
    d="M225.081 100.581C225.081 100.427 225.019 100.279 224.911 100.17C224.802 100.061 224.654 100 224.5 100C224.346 100 224.198 100.061 224.089 100.17C223.981 100.279 223.919 100.427 223.919 100.581V104.599L221.899 102.578C221.846 102.523 221.782 102.478 221.711 102.448C221.64 102.418 221.564 102.402 221.487 102.401C221.41 102.4 221.333 102.415 221.262 102.444C221.191 102.474 221.126 102.517 221.071 102.571C221.017 102.626 220.974 102.691 220.945 102.762C220.915 102.833 220.901 102.91 220.901 102.987C220.902 103.064 220.918 103.14 220.949 103.211C220.979 103.282 221.023 103.346 221.079 103.399L223.098 105.419H219.081C218.927 105.419 218.779 105.481 218.67 105.589C218.561 105.698 218.5 105.846 218.5 106C218.5 106.154 218.561 106.302 218.67 106.411C218.779 106.519 218.927 106.581 219.081 106.581H223.099L221.078 108.601C221.023 108.654 220.978 108.718 220.948 108.789C220.918 108.86 220.902 108.936 220.901 109.013C220.9 109.09 220.915 109.167 220.944 109.238C220.974 109.309 221.017 109.374 221.071 109.429C221.126 109.483 221.191 109.526 221.262 109.555C221.333 109.585 221.41 109.599 221.487 109.599C221.564 109.598 221.64 109.582 221.711 109.551C221.782 109.521 221.846 109.477 221.899 109.421L223.919 107.402V111.419C223.919 111.573 223.981 111.721 224.089 111.83C224.198 111.939 224.346 112 224.5 112C224.654 112 224.802 111.939 224.911 111.83C225.019 111.721 225.081 111.573 225.081 111.419V107.401L227.101 109.422C227.154 109.477 227.218 109.522 227.289 109.552C227.36 109.582 227.436 109.598 227.513 109.599C227.59 109.6 227.667 109.585 227.738 109.556C227.809 109.526 227.874 109.483 227.929 109.429C227.983 109.374 228.026 109.309 228.055 109.238C228.085 109.167 228.099 109.09 228.099 109.013C228.098 108.936 228.082 108.86 228.051 108.789C228.021 108.718 227.977 108.654 227.921 108.601L225.902 106.581H229.919C230.073 106.581 230.221 106.519 230.33 106.411C230.439 106.302 230.5 106.154 230.5 106C230.5 105.846 230.439 105.698 230.33 105.589C230.221 105.481 230.073 105.419 229.919 105.419H225.901L227.922 103.399C228.028 103.29 228.086 103.143 228.085 102.991C228.083 102.839 228.022 102.693 227.914 102.586C227.807 102.478 227.661 102.417 227.509 102.416C227.357 102.414 227.21 102.473 227.101 102.579L225.081 104.598V100.581Z"
    fill="white" />
  <path
    d="M186.081 23.5806C186.081 23.4266 186.019 23.279 185.911 23.1701C185.802 23.0612 185.654 23 185.5 23C185.346 23 185.198 23.0612 185.089 23.1701C184.981 23.279 184.919 23.4266 184.919 23.5806V27.5987L182.899 25.5781C182.846 25.5226 182.782 25.4784 182.711 25.448C182.64 25.4176 182.564 25.4017 182.487 25.401C182.41 25.4004 182.333 25.4151 182.262 25.4443C182.191 25.4736 182.126 25.5167 182.071 25.5713C182.017 25.6258 181.974 25.6907 181.945 25.762C181.915 25.8334 181.901 25.9099 181.901 25.987C181.902 26.0641 181.918 26.1402 181.949 26.2111C181.979 26.2819 182.023 26.3459 182.079 26.3995L184.098 28.4194H180.081C179.927 28.4194 179.779 28.4805 179.67 28.5894C179.561 28.6983 179.5 28.846 179.5 29C179.5 29.154 179.561 29.3017 179.67 29.4106C179.779 29.5195 179.927 29.5806 180.081 29.5806H184.099L182.078 31.6005C182.023 31.6541 181.978 31.7182 181.948 31.7891C181.918 31.8599 181.902 31.9361 181.901 32.0132C181.9 32.0903 181.915 32.1668 181.944 32.2381C181.974 32.3094 182.017 32.3743 182.071 32.4287C182.126 32.4832 182.191 32.5263 182.262 32.5555C182.333 32.5846 182.41 32.5993 182.487 32.5986C182.564 32.5979 182.64 32.5818 182.711 32.5514C182.782 32.5209 182.846 32.4766 182.899 32.4212L184.919 30.4021V34.4194C184.919 34.5734 184.981 34.721 185.089 34.8299C185.198 34.9388 185.346 35 185.5 35C185.654 35 185.802 34.9388 185.911 34.8299C186.019 34.721 186.081 34.5734 186.081 34.4194V30.4013L188.101 32.4219C188.154 32.4774 188.218 32.5216 188.289 32.552C188.36 32.5824 188.436 32.5983 188.513 32.599C188.59 32.5996 188.667 32.5849 188.738 32.5557C188.809 32.5264 188.874 32.4833 188.929 32.4287C188.983 32.3742 189.026 32.3093 189.055 32.238C189.085 32.1666 189.099 32.0901 189.099 32.013C189.098 31.9359 189.082 31.8598 189.051 31.7889C189.021 31.7181 188.977 31.6541 188.921 31.6005L186.902 29.5806H190.919C191.073 29.5806 191.221 29.5195 191.33 29.4106C191.439 29.3017 191.5 29.154 191.5 29C191.5 28.846 191.439 28.6983 191.33 28.5894C191.221 28.4805 191.073 28.4194 190.919 28.4194H186.901L188.922 26.3995C189.028 26.2899 189.086 26.1432 189.085 25.991C189.083 25.8387 189.022 25.6931 188.914 25.5855C188.807 25.4779 188.661 25.4169 188.509 25.4157C188.357 25.4144 188.21 25.473 188.101 25.5788L186.081 27.5979V23.5806Z"
    fill="white" />
  <defs>
    <filter id="filter0_d_2117_19750" x="0.5" y="112" width="68" height="68" filterUnits="userSpaceOnUse"
      color-interpolation-filters="sRGB">
      <feFlood flood-opacity="0" result="BackgroundImageFix" />
      <feColorMatrix in="SourceAlpha" type="matrix" values="0 0 0 0 0 0 0 0 0 0 0 0 0 0 0 0 0 0 127 0"
        result="hardAlpha" />
      <feOffset dy="4" />
      <feGaussianBlur stdDeviation="10" />
      <feComposite in2="hardAlpha" operator="out" />
      <feColorMatrix type="matrix" values="0 0 0 0 1 0 0 0 0 1 0 0 0 0 1 0 0 0 0.8 0" />
      <feBlend mode="normal" in2="BackgroundImageFix" result="effect1_dropShadow_2117_19750" />
      <feBlend mode="normal" in="SourceGraphic" in2="effect1_dropShadow_2117_19750" result="shape" />
    </filter>
    <filter id="filter1_d_2117_19750" x="176.5" y="15" width="68" height="68" filterUnits="userSpaceOnUse"
      color-interpolation-filters="sRGB">
      <feFlood flood-opacity="0" result="BackgroundImageFix" />
      <feColorMatrix in="SourceAlpha" type="matrix" values="0 0 0 0 0 0 0 0 0 0 0 0 0 0 0 0 0 0 127 0"
        result="hardAlpha" />
      <feOffset dy="4" />
      <feGaussianBlur stdDeviation="10" />
      <feComposite in2="hardAlpha" operator="out" />
      <feColorMatrix type="matrix" values="0 0 0 0 1 0 0 0 0 1 0 0 0 0 1 0 0 0 0.8 0" />
      <feBlend mode="normal" in2="BackgroundImageFix" result="effect1_dropShadow_2117_19750" />
      <feBlend mode="normal" in="SourceGraphic" in2="effect1_dropShadow_2117_19750" result="shape" />
    </filter>
    <filter id="filter2_d_2117_19750" x="161.5" y="126" width="59" height="59" filterUnits="userSpaceOnUse"
      color-interpolation-filters="sRGB">
      <feFlood flood-opacity="0" result="BackgroundImageFix" />
      <feColorMatrix in="SourceAlpha" type="matrix" values="0 0 0 0 0 0 0 0 0 0 0 0 0 0 0 0 0 0 127 0"
        result="hardAlpha" />
      <feOffset dy="4" />
      <feGaussianBlur stdDeviation="10" />
      <feComposite in2="hardAlpha" operator="out" />
      <feColorMatrix type="matrix" values="0 0 0 0 1 0 0 0 0 1 0 0 0 0 1 0 0 0 0.8 0" />
      <feBlend mode="normal" in2="BackgroundImageFix" result="effect1_dropShadow_2117_19750" />
      <feBlend mode="normal" in="SourceGraphic" in2="effect1_dropShadow_2117_19750" result="shape" />
    </filter>
    <filter id="filter3_d_2117_19750" x="21.5" y="0" width="59" height="59" filterUnits="userSpaceOnUse"
      color-interpolation-filters="sRGB">
      <feFlood flood-opacity="0" result="BackgroundImageFix" />
      <feColorMatrix in="SourceAlpha" type="matrix" values="0 0 0 0 0 0 0 0 0 0 0 0 0 0 0 0 0 0 127 0"
        result="hardAlpha" />
      <feOffset dy="4" />
      <feGaussianBlur stdDeviation="10" />
      <feComposite in2="hardAlpha" operator="out" />
      <feColorMatrix type="matrix" values="0 0 0 0 1 0 0 0 0 1 0 0 0 0 1 0 0 0 0.8 0" />
      <feBlend mode="normal" in2="BackgroundImageFix" result="effect1_dropShadow_2117_19750" />
      <feBlend mode="normal" in="SourceGraphic" in2="effect1_dropShadow_2117_19750" result="shape" />
    </filter>
  </defs>
</svg>