<svg width="87" height="76" viewBox="0 0 87 76" fill="none" xmlns="http://www.w3.org/2000/svg">
<path d="M97.8349 47.6269C94.8462 46.0261 90.1227 42.372 86.1031 39.9972C82.0589 37.3529 78.7233 35.9885 77.9404 32.7701C77.0092 29.5914 79.2157 26.742 81.3961 22.4303C83.6896 18.3634 85.953 12.8362 87.7414 9.95733C88.8953 8.36421 90.0957 8.09997 91.4897 8.83763C93.4583 7.49516 95.7904 10.167 98.1974 13.2037C101.124 16.7457 103.586 20.2568 100.162 24.3627C100.245 24.6449 100.327 24.9276 100.407 25.2132C106.104 27.5866 106.185 34.9366 105.513 37.6794C105.21 39.6397 104.494 42.5921 102.697 43.5492C102.059 47.1661 100.633 48.9292 97.8349 47.6269Z" fill="url(#paint0_linear_2447_37666)"/>
<path opacity="0.5" d="M104.174 32.535C104.589 31.7603 103.953 29.3724 103.098 28.9533C102.243 28.5342 102.027 28.7366 97.648 29.4062C93.2691 30.0758 80.227 31.7454 80.2584 32.5545C80.2915 33.3642 97.1748 33.3108 99.9087 33.3177C102.643 33.3245 103.759 33.3097 104.174 32.535Z" fill="url(#paint1_linear_2447_37666)"/>
<path opacity="0.5" d="M89.7553 18.1753C85.7346 23.8499 78.6698 30.7805 78.6698 30.7805C78.6698 30.7805 84.3236 28.436 92.0095 24.8111C94.4827 23.6447 100.668 21.0439 100.705 19.4589C100.743 17.8738 96.2458 11.2858 94.5856 11.2516C92.9254 11.2173 93.7759 12.5006 89.7553 18.1753Z" fill="url(#paint2_linear_2447_37666)"/>
<g style="mix-blend-mode:multiply" opacity="0.5">
<path d="M78.1049 29.2409C79.2616 27.7815 81.6003 25.5445 83.7298 21.7235C85.9077 18.0451 87.8785 12.7832 89.393 8.56837C90.0588 8.32196 90.7693 8.42727 91.5215 8.82816C91.8355 8.61457 92.155 8.51232 92.4829 8.48643C91.117 13.0402 88.4845 18.3958 85.6368 22.096C82.8076 25.9388 79.7632 28.1261 78.005 29.6203C78.0353 29.4933 78.0681 29.3681 78.1043 29.2405L78.1049 29.2409Z" fill="url(#paint3_linear_2447_37666)"/>
</g>
<g style="mix-blend-mode:multiply" opacity="0.5">
<path d="M77.7011 32.4489C77.6825 32.3682 77.6675 32.2876 77.6521 32.2076C80.5298 31.2205 85.2091 29.468 88.7286 27.8555C91.8673 26.4624 97.0773 23.9875 101.354 21.8517C101.093 22.6388 100.643 23.4391 99.9706 24.2418C100.053 24.524 100.135 24.8067 100.216 25.0924C101.099 25.4677 101.87 25.9828 102.529 26.5907C94.18 28.4741 82.6178 31.2025 77.7011 32.4489Z" fill="url(#paint4_linear_2447_37666)"/>
</g>
<path opacity="0.5" d="M85.0135 36.6586C81.4814 35.3796 79.5469 34.6584 78.4377 33.9779C78.3288 33.7774 78.2324 33.5725 78.1484 33.3633C79.5714 33.8897 82.381 34.6767 86.2806 35.7584C91.4124 37.0218 98.7679 40.2572 103.415 43.0194C103.2 43.2307 102.967 43.4146 102.708 43.5534C102.499 44.8254 102.159 45.8741 101.706 46.6398C96.639 41.8482 88.9385 37.8222 85.0135 36.6586Z" fill="url(#paint5_linear_2447_37666)"/>
<path opacity="0.5" d="M88.5753 41.5142C83.4881 38.1984 78.8879 36.4017 77.9388 32.7689C77.0513 29.515 79.4333 26.0903 81.9274 21.4921C81.9021 22.4126 82.0117 23.0335 82.4813 22.8482C83.8082 22.3058 83.8117 22.2943 83.8106 22.2976C83.8407 22.3606 82.9699 25.2766 84.4026 27.0682C86.182 29.3654 89.384 28.4998 89.3992 28.4656C89.3688 28.4883 85.9588 29.8196 86.963 33.0946C87.5776 35.118 90.5386 37.3358 90.5493 37.4135C90.5398 37.41 88.4229 37.9686 88.0349 39.6356C87.8699 40.3241 88.5879 41.0338 88.5751 41.5138L88.5753 41.5142Z" fill="url(#paint6_linear_2447_37666)"/>
<g style="mix-blend-mode:multiply" opacity="0.2">
<path d="M102.695 43.5433C102.057 47.1603 100.632 48.9234 97.8334 47.6211C94.8447 46.0202 90.1212 42.3662 86.1015 39.9913C82.0573 37.347 78.7217 35.9827 77.9389 32.7642C77.6273 31.605 77.7315 30.3854 78.1145 29.1101C78.3753 30.6163 78.8547 31.6872 79.6779 31.928C81.7291 32.283 94.2111 32.8362 105.342 38.6111C104.979 40.4749 104.217 42.7281 102.695 43.5433Z" fill="url(#paint7_linear_2447_37666)"/>
</g>
<path d="M23.4224 67.5657C25.2103 64.685 27.4739 59.1587 29.7676 55.0922C31.9479 50.7801 34.1544 47.9307 33.2231 44.752C32.4403 41.5336 29.1047 40.1692 25.0606 37.5254C21.0408 35.1501 16.3171 31.4951 13.3289 29.8961C11.533 29.0934 10.3613 29.4648 9.52292 30.8006C7.14684 30.6223 6.46312 34.1022 5.89687 37.9355C5.13313 42.4665 4.75672 46.7381 9.77469 48.582C9.8446 48.8675 9.91465 49.1535 9.98768 49.4412C6.24133 54.3447 9.84595 60.7506 11.7989 62.7901C13.0422 64.3358 15.1378 66.5352 17.1729 66.4654C19.5342 69.2785 21.6502 70.0927 23.4224 67.5657Z" fill="url(#paint8_linear_2447_37666)"/>
<path opacity="0.5" d="M10.3866 57.6652C9.63983 57.2019 8.99642 54.816 9.52748 54.0255C10.0585 53.235 10.3466 53.3022 14.4737 51.6927C18.6007 50.0831 30.7303 45.0081 31.1077 45.7245C31.4838 46.4422 16.8358 54.8376 14.4716 56.2105C12.1074 57.5834 11.1335 58.1285 10.3866 57.6652Z" fill="url(#paint9_linear_2447_37666)"/>
<path opacity="0.5" d="M15.6941 38.0198C22.0134 40.9239 31.597 43.3936 31.597 43.3936C31.597 43.3936 25.5284 44.1901 17.0597 44.8937C14.3347 45.1202 7.67812 45.9603 6.85308 44.6064C6.02804 43.2524 6.62839 35.2986 8.04901 34.4389C9.46964 33.5792 9.37473 35.1158 15.6941 38.0198Z" fill="url(#paint10_linear_2447_37666)"/>
<g style="mix-blend-mode:multiply" opacity="0.5">
<path d="M31.3161 41.778C29.5846 41.0924 26.4408 40.3245 22.6861 38.0801C18.9608 35.9836 14.623 32.412 11.2041 29.5191C10.5042 29.6386 9.94162 30.085 9.49066 30.8083C9.11192 30.7803 8.78407 30.8516 8.4872 30.9931C11.947 34.2538 16.9046 37.5757 21.2209 39.3562C25.5924 41.2696 29.3226 41.6417 31.5924 42.0565C31.5026 41.9617 31.4116 41.8697 31.3165 41.7774L31.3161 41.778Z" fill="url(#paint11_linear_2447_37666)"/>
</g>
<g style="mix-blend-mode:multiply" opacity="0.5">
<path d="M33.2699 44.3544C33.2457 44.2753 33.2184 44.198 33.1917 44.121C30.2059 44.7049 25.2773 45.5269 21.4231 45.8902C18.0084 46.2531 12.2589 46.7147 7.48725 47.0035C8.10652 47.5548 8.89685 48.0226 9.88041 48.3816C9.95032 48.6671 10.0204 48.9531 10.0934 49.2408C9.51631 50.0074 9.1056 50.8393 8.83951 51.6948C17.0113 49.1516 28.3887 45.7333 33.2699 44.3544Z" fill="url(#paint12_linear_2447_37666)"/>
</g>
<path opacity="0.5" d="M29.0422 51.6562C31.4615 48.7826 32.7763 47.1907 33.3966 46.0468C33.3907 45.8186 33.3718 45.593 33.3398 45.3699C32.3707 46.5372 30.331 48.6236 27.4948 51.5102C23.6822 55.1702 18.9299 61.6499 16.286 66.3658C16.5782 66.4412 16.8722 66.4838 17.1655 66.4747C17.9827 67.4717 18.8015 68.2098 19.5768 68.6463C21.569 61.9633 26.2249 54.6264 29.0422 51.6562Z" fill="url(#paint13_linear_2447_37666)"/>
<path opacity="0.5" d="M28.3851 57.642C31.1328 52.2269 34.2183 48.3708 33.2238 44.7502C32.3655 41.4884 28.5902 39.7135 24.1312 36.9784C24.6134 37.7629 24.8289 38.3555 24.3296 38.4298C22.9092 38.6235 22.9004 38.6153 22.9031 38.6176C22.9085 38.6872 25.1207 40.7772 24.7757 43.0451C24.3832 45.9242 21.1774 46.7756 21.1472 46.7535C21.1849 46.758 24.8036 46.206 25.5715 49.5443C26.051 51.6039 24.5955 55.0051 24.6251 55.0777C24.6316 55.0699 26.7442 54.4953 27.9137 55.7449C28.4008 56.2587 28.134 57.2323 28.3849 57.6416L28.3851 57.642Z" fill="url(#paint14_linear_2447_37666)"/>
<g style="mix-blend-mode:multiply" opacity="0.2">
<path d="M17.1713 66.4595C19.5327 69.2726 21.6486 70.0868 23.4209 67.5599C25.2087 64.6791 27.4724 59.1529 29.7661 55.0864C31.9463 50.7742 34.1528 47.9249 33.2216 44.7462C32.9119 43.5865 32.2118 42.5823 31.2424 41.6695C31.7697 43.1043 31.89 44.2714 31.2974 44.8915C29.6986 46.2246 19.1654 52.9446 12.4131 63.5114C13.6595 64.9439 15.4458 66.5144 17.1713 66.4595Z" fill="url(#paint15_linear_2447_37666)"/>
</g>
<path d="M83.0678 30.9975C86.7128 44.6006 77.3469 58.9302 62.1501 63.0021C46.9532 67.0741 31.6764 59.3475 28.0315 45.7444C24.3865 32.1413 33.7506 17.8127 48.9498 13.7401C64.149 9.66744 79.4227 17.3938 83.0678 30.9975Z" fill="url(#paint16_linear_2447_37666)"/>
<g style="mix-blend-mode:lighten" opacity="0.7">
<path d="M36.3845 20.4276C33.6846 32.9811 31.0846 44.7527 32.0362 53.901C33.8907 56.3064 36.2046 58.345 38.8394 59.954C35.819 48.5605 39.0362 32.9288 41.2733 16.9129C39.5011 17.9373 37.8658 19.1174 36.3845 20.4276ZM48.9152 13.749C47.6847 14.0788 46.4976 14.4819 45.3476 14.9402C44.0546 32.045 40.5875 49.5283 44.1665 62.4656C45.9175 63.0749 47.7496 63.5214 49.6377 63.7917C46.4105 49.3054 50.0001 30.6892 50.0629 13.4692C49.6797 13.5573 49.2975 13.6466 48.9152 13.749ZM74.9251 18.7261C76.4766 29.8811 73.5632 44.1686 71.5715 58.7094C73.4054 57.471 75.0701 56.0568 76.5372 54.5022C78.7525 44.1986 80.9161 34.4106 81.1243 26.158C79.5907 23.2701 77.4687 20.7681 74.9251 18.7261ZM63.8278 13.4232C66.2394 27.9618 62.7598 46.1093 62.9142 62.7769C64.5236 62.3019 66.0692 61.715 67.5326 61.0221C68.6466 44.8674 71.9114 28.2659 69.5296 15.3791C67.7298 14.5386 65.8197 13.8803 63.8279 13.4237L63.8278 13.4232ZM54.2409 12.8005C55.1881 29.5348 51.5729 48.5241 54.025 64.0909C55.6164 64.0871 57.2308 63.9578 58.8547 63.699C57.5742 47.2898 61.1484 28.4651 59.2458 12.7449C57.6046 12.6291 55.9308 12.6444 54.2403 12.8002L54.2409 12.8005Z" fill="url(#paint17_linear_2447_37666)"/>
</g>
<g style="mix-blend-mode:screen" opacity="0.5">
<path d="M56.3742 59.6269C56.3571 58.9621 54.3427 59.5154 51.5341 59.5945C48.7261 59.6735 48.2839 59.8509 48.3013 60.5172C48.3184 61.182 48.7875 62.0819 51.5968 62.0021C54.4046 61.9222 56.3908 60.2919 56.3742 59.6269Z" fill="#FFDED8"/>
</g>
<g style="mix-blend-mode:screen" opacity="0.7">
<path d="M72.1889 19.8596C73.1509 23.4496 63.9181 25.1312 52.7734 28.1174C41.6287 31.1036 32.7906 34.2641 31.8286 30.6741C30.8667 27.084 38.1441 18.1048 49.2902 15.1182C60.4363 12.1316 71.2272 16.2704 72.1889 19.8596Z" fill="#FF8872"/>
</g>
<g style="mix-blend-mode:screen">
<path d="M37.8435 26.403C38.6916 27.1187 38.5891 28.6281 37.6136 29.7735C36.6379 30.9199 35.1583 31.269 34.309 30.5531C33.4594 29.8378 33.5627 28.3293 34.5384 27.1828C35.5148 26.0367 36.9939 25.6877 37.8435 26.403Z" fill="#FFF3F1"/>
<path d="M52.864 17.1498C53.6355 18.4376 50.5654 20.0299 46.9041 22.2077C43.2429 24.3855 40.3789 26.3236 39.6076 25.0367C38.8378 23.7495 40.4517 19.7246 44.113 17.5468C47.7732 15.3687 52.0931 15.8624 52.864 17.1498Z" fill="#FFF3F1"/>
</g>
<g style="mix-blend-mode:screen" opacity="0.6">
<path d="M29.6355 45.3117C27.8818 38.767 28.6232 32.134 31.2787 26.399C27.6056 32.1447 26.232 39.0308 28.0302 45.7419C29.8285 52.453 34.461 57.7296 40.5152 60.87C35.3476 57.2297 31.389 51.856 29.6355 45.3117Z" fill="#FFDED8"/>
</g>
<g style="mix-blend-mode:multiply">
<path d="M70.8237 16.0273C75.4667 19.8929 79.0359 25.248 80.7444 31.6245C82.453 38.0009 82.0397 44.4236 79.9515 50.0928C83.5006 44.3999 84.809 37.6205 83.0377 31.01C81.2664 24.3994 76.7432 19.1831 70.8237 16.0273Z" fill="#FFF3F1"/>
</g>
<g style="mix-blend-mode:screen" opacity="0.6">
<path d="M69.7915 18.7771C72.987 22.3369 75.5896 27.0957 77.0665 32.6074C78.5434 38.1192 78.6688 43.5417 77.6814 48.2228C79.5994 43.6102 80.0233 37.9397 78.4922 32.2254C76.961 26.5111 73.7588 21.8127 69.7915 18.7771Z" fill="#FFDED8"/>
</g>
<path fill-rule="evenodd" clip-rule="evenodd" d="M51.6622 30.9596C52.4403 29.4915 52.6273 27.7329 52.1819 26.0708C52.6273 27.7329 53.6685 29.1624 55.0765 30.0448C56.4844 30.9272 58.1439 31.1902 59.6897 30.776L53.8612 32.3377L48.0326 33.8995C49.5785 33.4853 50.884 32.4278 51.6622 30.9596ZM49.7119 40.1664C48.166 40.5806 46.5066 40.3176 45.0986 39.4352C43.6907 38.5528 42.6495 37.1233 42.2041 35.4612L48.0326 33.8995C46.4868 34.3137 44.8274 34.0507 43.4194 33.1683C42.0114 32.2859 40.9703 30.8564 40.5249 29.1943L46.3534 27.6326L52.1819 26.0708L58.0105 24.5091L63.839 22.9473C64.2843 24.6094 64.0974 26.368 63.3192 27.8361C62.5411 29.3043 61.2355 30.3618 59.6897 30.776L65.5182 29.2143C65.9636 30.8763 65.7766 32.6349 64.9985 34.103C64.2203 35.5712 62.9147 36.6287 61.3689 37.0429C59.8231 37.4571 58.1637 37.1941 56.7557 36.3117C55.3477 35.4293 54.3065 33.9998 53.8612 32.3377C54.3065 33.9998 54.1196 35.7584 53.3414 37.2265C52.5633 38.6947 51.2577 39.7522 49.7119 40.1664ZM55.5404 38.6047C55.9857 40.2667 57.0269 41.6962 58.4349 42.5786C59.8429 43.461 61.5023 43.724 63.0481 43.3098C64.5939 42.8956 65.8995 41.8381 66.6777 40.37C67.4558 38.9018 67.6428 37.1432 67.1974 35.4812L61.3689 37.0429L55.5404 38.6047ZM55.5404 38.6047L49.7119 40.1664L43.8833 41.7282C44.3287 43.3902 45.3699 44.8197 46.7778 45.7021C48.1858 46.5845 49.8452 46.8475 51.3911 46.4333C52.9369 46.0191 54.2425 44.9616 55.0206 43.4935C55.7988 42.0253 55.9857 40.2667 55.5404 38.6047Z" fill="#FF8872"/>
<defs>
<linearGradient id="paint0_linear_2447_37666" x1="103.734" y1="25.7529" x2="77.7436" y2="32.717" gradientUnits="userSpaceOnUse">
<stop stop-color="#FFF3F1"/>
<stop offset="0.390625" stop-color="#FFF3F1"/>
<stop offset="1" stop-color="#FFDED8"/>
</linearGradient>
<linearGradient id="paint1_linear_2447_37666" x1="92.3083" y1="29.3259" x2="92.6777" y2="33.5098" gradientUnits="userSpaceOnUse">
<stop stop-color="white" stop-opacity="0"/>
<stop offset="0.536458" stop-color="white" stop-opacity="0.7"/>
<stop offset="1" stop-color="white" stop-opacity="0"/>
</linearGradient>
<linearGradient id="paint2_linear_2447_37666" x1="86.1108" y1="12.8307" x2="95.0028" y2="22.59" gradientUnits="userSpaceOnUse">
<stop stop-color="white"/>
<stop offset="0.489583" stop-color="white"/>
<stop offset="0.807292" stop-color="white" stop-opacity="0"/>
</linearGradient>
<linearGradient id="paint3_linear_2447_37666" x1="92.3637" y1="7.76279" x2="73.4616" y2="12.8276" gradientUnits="userSpaceOnUse">
<stop stop-color="#FFDED8" stop-opacity="0"/>
<stop offset="1" stop-color="#FFDED8"/>
</linearGradient>
<linearGradient id="paint4_linear_2447_37666" x1="101.209" y1="21.8906" x2="81.598" y2="27.1453" gradientUnits="userSpaceOnUse">
<stop stop-color="#FFDED8" stop-opacity="0"/>
<stop offset="1" stop-color="#FFDED8"/>
</linearGradient>
<linearGradient id="paint5_linear_2447_37666" x1="80.777" y1="32.659" x2="99.2066" y2="27.7208" gradientUnits="userSpaceOnUse">
<stop stop-color="#FFB3A5"/>
<stop offset="0.875" stop-color="#FFB3A5" stop-opacity="0"/>
</linearGradient>
<linearGradient id="paint6_linear_2447_37666" x1="77.4902" y1="31.776" x2="90.3127" y2="28.5949" gradientUnits="userSpaceOnUse">
<stop stop-color="#FFB3A5"/>
<stop offset="0.416667" stop-color="#FFB3A5"/>
<stop offset="0.927083" stop-color="#FFB3A5" stop-opacity="0"/>
</linearGradient>
<linearGradient id="paint7_linear_2447_37666" x1="95.2535" y1="49.1746" x2="94.7292" y2="32.9353" gradientUnits="userSpaceOnUse">
<stop stop-color="#FFB3A5"/>
<stop offset="1" stop-color="#FFB3A5" stop-opacity="0"/>
</linearGradient>
<linearGradient id="paint8_linear_2447_37666" x1="7.37663" y1="51.5718" x2="33.3671" y2="44.6077" gradientUnits="userSpaceOnUse">
<stop stop-color="#FFF3F1"/>
<stop offset="0.390625" stop-color="#FFF3F1"/>
<stop offset="1" stop-color="#FFDED8"/>
</linearGradient>
<linearGradient id="paint9_linear_2447_37666" x1="19.0578" y1="48.9533" x2="20.8299" y2="52.7614" gradientUnits="userSpaceOnUse">
<stop stop-color="white" stop-opacity="0"/>
<stop offset="0.536458" stop-color="white" stop-opacity="0.7"/>
<stop offset="1" stop-color="white" stop-opacity="0"/>
</linearGradient>
<linearGradient id="paint10_linear_2447_37666" x1="16.178" y1="31.5691" x2="13.3569" y2="44.4669" gradientUnits="userSpaceOnUse">
<stop stop-color="white"/>
<stop offset="0.489583" stop-color="white"/>
<stop offset="0.807292" stop-color="white" stop-opacity="0"/>
</linearGradient>
<linearGradient id="paint11_linear_2447_37666" x1="8.22857" y1="30.3068" x2="27.1307" y2="25.242" gradientUnits="userSpaceOnUse">
<stop stop-color="#FFDED8" stop-opacity="0"/>
<stop offset="1" stop-color="#FFDED8"/>
</linearGradient>
<linearGradient id="paint12_linear_2447_37666" x1="7.63232" y1="46.9646" x2="27.2433" y2="41.7099" gradientUnits="userSpaceOnUse">
<stop stop-color="#FFDED8" stop-opacity="0"/>
<stop offset="1" stop-color="#FFDED8"/>
</linearGradient>
<linearGradient id="paint13_linear_2447_37666" x1="30.7113" y1="46.0742" x2="12.2817" y2="51.0124" gradientUnits="userSpaceOnUse">
<stop stop-color="#FFB3A5"/>
<stop offset="0.875" stop-color="#FFB3A5" stop-opacity="0"/>
</linearGradient>
<linearGradient id="paint14_linear_2447_37666" x1="33.1159" y1="43.666" x2="20.4207" y2="47.3223" gradientUnits="userSpaceOnUse">
<stop stop-color="#FFB3A5"/>
<stop offset="0.416667" stop-color="#FFB3A5"/>
<stop offset="0.927083" stop-color="#FFB3A5" stop-opacity="0"/>
</linearGradient>
<linearGradient id="paint15_linear_2447_37666" x1="26.4319" y1="67.6154" x2="18.7663" y2="53.2895" gradientUnits="userSpaceOnUse">
<stop stop-color="#FFB3A5"/>
<stop offset="1" stop-color="#FFB3A5" stop-opacity="0"/>
</linearGradient>
<linearGradient id="paint16_linear_2447_37666" x1="48.9498" y1="13.7401" x2="62.1496" y2="63.0023" gradientUnits="userSpaceOnUse">
<stop stop-color="#FFDED8"/>
<stop offset="0.229167" stop-color="#FFF3F1"/>
<stop offset="0.5625" stop-color="#FFF3F1"/>
<stop offset="0.817708" stop-color="#FFDED8"/>
<stop offset="1" stop-color="#FFB3A5"/>
</linearGradient>
<linearGradient id="paint17_linear_2447_37666" x1="49.4967" y1="13.5932" x2="62.6914" y2="62.8366" gradientUnits="userSpaceOnUse">
<stop stop-color="white"/>
<stop offset="1" stop-color="#FFDED8"/>
</linearGradient>
</defs>
</svg>
