<svg width="77" height="95" viewBox="0 0 77 95" fill="none" xmlns="http://www.w3.org/2000/svg">
<path d="M68.0569 76.5699C66.1517 75.5735 63.144 73.2925 60.5823 71.813C58.0057 70.1643 55.878 69.3176 55.3877 67.2979C54.8025 65.3037 56.2217 63.5065 57.6289 60.7907C59.1076 58.2283 60.5716 54.7485 61.7237 52.9341C62.4662 51.9295 63.2343 51.7598 64.1229 52.2189C65.3854 51.3692 66.8676 53.0406 68.3966 54.941C70.2562 57.1572 71.8186 59.3555 69.6175 61.9459C69.6691 62.1229 69.7208 62.3003 69.7715 62.4795C73.4048 63.9528 73.4337 68.5705 72.9958 70.2959C72.7955 71.5285 72.3291 73.3857 71.1773 73.9927C70.7579 76.2672 69.8414 77.3794 68.0569 76.5699Z" fill="url(#paint0_linear_2447_37647)"/>
<path opacity="0.5" d="M72.1552 67.068C72.4229 66.58 72.0241 65.0817 71.4788 64.8211C70.9335 64.5604 70.7949 64.6882 67.994 65.1227C65.1931 65.5571 56.8519 66.6471 56.8694 67.1553C56.888 67.6639 67.6793 67.5774 69.4267 67.5731C71.174 67.5688 71.8874 67.556 72.1552 67.068Z" fill="url(#paint1_linear_2447_37647)"/>
<path opacity="0.5" d="M62.9848 58.0909C60.3971 61.6688 55.8598 66.0454 55.8598 66.0454C55.8598 66.0454 59.4809 64.5547 64.4048 62.253C65.9892 61.5124 69.9504 59.859 69.9794 58.863C70.0084 57.867 67.1549 53.7419 66.0939 53.7256C65.0329 53.7093 65.5724 54.5129 62.9848 58.0909Z" fill="url(#paint2_linear_2447_37647)"/>
<g style="mix-blend-mode:multiply" opacity="0.5">
<path d="M55.5034 65.0799C56.2474 64.1594 57.7492 62.7465 59.1223 60.3391C60.5258 58.0212 61.802 54.709 62.7832 52.0561C63.2096 51.8992 63.6633 51.9632 64.1428 52.2127C64.3442 52.0775 64.5488 52.0123 64.7584 51.995C63.8711 54.8604 62.1717 58.2335 60.3399 60.5672C58.5196 62.9905 56.5669 64.3743 55.4384 65.3186C55.4582 65.2387 55.4795 65.16 55.5031 65.0797L55.5034 65.0799Z" fill="url(#paint3_linear_2447_37647)"/>
</g>
<g style="mix-blend-mode:multiply" opacity="0.5">
<path d="M55.2355 67.0968C55.2239 67.0462 55.2146 66.9956 55.205 66.9454C57.0474 66.3161 60.0437 65.2003 62.2983 64.1762C64.3088 63.2911 67.6466 61.7198 70.3868 60.3645C70.2177 60.8598 69.9272 61.364 69.495 61.8705C69.5467 62.0475 69.5984 62.2249 69.649 62.4041C70.2123 62.6372 70.7039 62.9584 71.1227 63.3382C65.7807 64.5478 58.382 66.2982 55.2355 67.0968Z" fill="url(#paint4_linear_2447_37647)"/>
</g>
<path opacity="0.5" d="M59.8961 69.7186C57.6426 68.9261 56.4083 68.479 55.7015 68.0549C55.6325 67.9293 55.5715 67.8009 55.5186 67.6697C56.4264 67.9959 58.2197 68.4816 60.7088 69.149C63.9849 69.9267 68.676 71.9364 71.6379 73.6573C71.4996 73.7907 71.3499 73.907 71.1842 73.995C71.0465 74.7949 70.8259 75.4548 70.5338 75.9373C67.3103 72.9427 62.4011 70.4373 59.8961 69.7186Z" fill="url(#paint5_linear_2447_37647)"/>
<path opacity="0.5" d="M62.1574 72.7583C58.9163 70.691 55.9817 69.5765 55.3865 67.2971C54.8294 65.2555 56.3627 63.0962 57.9712 60.1994C57.9521 60.7778 58.0203 61.1676 58.3209 61.0497C59.1708 60.7048 59.1731 60.6975 59.1723 60.6996C59.1913 60.7391 58.6256 62.5739 59.5358 63.6951C60.6659 65.1328 62.7152 64.5789 62.725 64.5574C62.7055 64.5717 60.5218 65.4189 61.1533 67.4734C61.5398 68.7428 63.4254 70.1269 63.432 70.1757C63.4259 70.1735 62.0712 70.5311 61.818 71.5797C61.7103 72.0128 62.167 72.4564 62.1573 72.758L62.1574 72.7583Z" fill="url(#paint6_linear_2447_37647)"/>
<g style="mix-blend-mode:multiply" opacity="0.2">
<path d="M71.1757 73.989C70.7563 76.2635 69.8397 77.3757 68.0552 76.5663C66.15 75.5698 63.1424 73.2889 60.5807 71.8094C58.004 70.1607 55.8764 69.3139 55.3861 67.2942C55.1905 66.5669 55.261 65.8003 55.5098 64.9978C55.6718 65.9434 55.9748 66.6147 56.5002 66.7634C57.8101 66.9801 65.7864 67.2884 72.8828 70.8818C72.6449 72.054 72.1509 73.472 71.1757 73.989Z" fill="url(#paint7_linear_2447_37647)"/>
</g>
<path d="M20.4329 89.3305C21.5846 87.515 23.0488 84.0358 24.5276 81.4736C25.9347 78.7575 27.3539 76.9604 26.7687 74.9661C26.2784 72.9465 24.1507 72.0997 21.5742 70.4513C19.0124 68.9715 16.0046 66.69 14.0997 65.6947C12.9544 65.196 12.2043 65.433 11.6642 66.2749C10.1461 66.1703 9.69816 68.3589 9.32421 70.7691C8.82184 73.6183 8.56786 76.3033 11.7693 77.446C11.8131 77.6252 11.857 77.8046 11.9028 77.9852C9.49289 81.0778 11.7767 85.0912 13.0186 86.3665C13.8084 87.3338 15.1409 88.709 16.4419 88.6588C17.9423 90.4188 19.2922 90.9238 20.4329 89.3305Z" fill="url(#paint8_linear_2447_37647)"/>
<path opacity="0.5" d="M12.132 83.1513C11.6562 82.8625 11.2524 81.3655 11.5943 80.8672C11.9362 80.3688 12.1202 80.4102 14.763 79.386C17.4059 78.3618 25.1746 75.1351 25.4135 75.584C25.6517 76.0338 16.263 81.3545 14.7475 82.2245C13.2321 83.0945 12.6079 83.44 12.132 83.1513Z" fill="url(#paint9_linear_2447_37647)"/>
<path opacity="0.5" d="M15.5862 70.7916C19.6161 72.5963 25.7339 74.1179 25.7339 74.1179C25.7339 74.1179 21.8526 74.6374 16.4375 75.1061C14.6951 75.2569 10.4378 75.8056 9.91473 74.9575C9.39165 74.1095 9.80032 69.1103 10.711 68.5657C11.6217 68.0211 11.5562 68.9868 15.5862 70.7916Z" fill="url(#paint10_linear_2447_37647)"/>
<g style="mix-blend-mode:multiply" opacity="0.5">
<path d="M25.5596 73.1037C24.455 72.6784 22.448 72.2057 20.0552 70.8074C17.6807 69.5018 14.9194 67.2715 12.7432 65.4646C12.2955 65.5419 11.9345 65.8241 11.644 66.28C11.4021 66.2636 11.1923 66.3094 11.0021 66.3992C13.2032 68.4371 16.3615 70.5086 19.1147 71.6138C21.9028 72.8022 24.2858 73.0243 25.7353 73.2778C25.6782 73.2185 25.6203 73.161 25.5598 73.1033L25.5596 73.1037Z" fill="url(#paint11_linear_2447_37647)"/>
</g>
<g style="mix-blend-mode:multiply" opacity="0.5">
<path d="M26.8 74.7162C26.7847 74.6665 26.7675 74.618 26.7507 74.5698C24.8405 74.946 21.6877 75.4779 19.2231 75.7183C17.0395 75.957 13.3632 76.265 10.3124 76.4615C10.7065 76.8059 11.2102 77.0973 11.8377 77.3198C11.8815 77.499 11.9254 77.6784 11.9711 77.8589C11.5999 78.3424 11.3348 78.8664 11.162 79.4048C16.3931 77.7812 23.6758 75.5978 26.8 74.7162Z" fill="url(#paint12_linear_2447_37647)"/>
</g>
<path opacity="0.5" d="M24.0752 79.3171C25.6306 77.5041 26.4759 76.4998 26.876 75.7791C26.8729 75.6358 26.8615 75.4941 26.8418 75.354C26.2187 76.0905 24.9085 77.4077 23.0866 79.2303C20.6383 81.5418 17.5805 85.6278 15.8758 88.5991C16.0623 88.6455 16.2501 88.6714 16.4376 88.6647C16.9568 89.2886 17.4778 89.7498 17.972 90.0216C19.2663 85.8164 22.2651 81.1921 24.0752 79.3171Z" fill="url(#paint13_linear_2447_37647)"/>
<path opacity="0.5" d="M23.636 83.0801C25.4092 79.6692 27.3934 77.2368 26.7692 74.9651C26.2308 72.9184 23.8234 71.8151 20.9819 70.1107C21.2877 70.6021 21.4235 70.9737 21.1042 71.0219C20.1957 71.1481 20.1901 71.143 20.1918 71.1444C20.1951 71.1881 21.6025 72.4943 21.3748 73.9203C21.115 75.7304 19.0633 76.2754 19.044 76.2616C19.0681 76.2644 21.3828 75.9061 21.8631 78.0012C22.1631 79.2937 21.2222 81.4352 21.2409 81.4808C21.245 81.4758 22.5971 81.1082 23.3407 81.8897C23.6504 82.2109 23.4768 82.8235 23.6359 83.0798L23.636 83.0801Z" fill="url(#paint14_linear_2447_37647)"/>
<g style="mix-blend-mode:multiply" opacity="0.2">
<path d="M16.4412 88.6554C17.9417 90.4154 19.2915 90.9203 20.4322 89.3271C21.584 87.5116 23.0482 84.0324 24.5269 81.4702C25.934 78.7541 27.3532 76.9569 26.768 74.9627C26.5737 74.2351 26.1294 73.6064 25.5126 73.0358C25.8452 73.9357 25.9184 74.6686 25.5377 75.0601C24.5116 75.9026 17.7581 80.1578 13.4092 86.818C14.2013 87.7141 15.3381 88.6952 16.4412 88.6554Z" fill="url(#paint15_linear_2447_37647)"/>
</g>
<path d="M58.67 66.1682C60.957 74.7035 54.9258 83.7361 45.1998 86.3421C35.4738 88.9482 25.7338 84.1416 23.4467 75.6063C21.1597 67.071 27.1898 58.0391 36.9173 55.4326C46.6448 52.8261 56.3829 57.6326 58.67 66.1682Z" fill="url(#paint16_linear_2447_37647)"/>
<g style="mix-blend-mode:lighten" opacity="0.5">
<path d="M28.8657 59.674C27.1007 67.5697 25.402 74.9739 25.9815 80.7186C27.1593 82.2241 28.6318 83.4977 30.3108 84.5004C28.416 77.3514 30.5214 67.52 32.0015 57.4504C30.8656 58.0996 29.8167 58.8461 28.8657 59.674ZM36.8958 55.4386C36.1083 55.6496 35.3483 55.9066 34.6118 56.1982C33.7317 66.949 31.4608 77.9445 33.7078 86.0617C34.8251 86.439 35.9946 86.7138 37.2006 86.8777C35.1834 77.7862 37.5361 66.0785 37.6302 55.2592C37.3851 55.3157 37.1405 55.373 36.8958 55.4386ZM53.5046 58.484C54.4613 65.4877 52.5544 74.4736 51.2358 83.6157C52.4118 82.8319 53.4803 81.9381 54.4228 80.9568C55.8711 74.4762 57.2847 68.3197 57.4436 63.134C56.4725 61.3243 55.1241 59.759 53.5046 58.484ZM46.4284 55.1871C47.9242 64.314 45.6432 75.7268 45.6896 86.1985C46.7198 85.8949 47.7094 85.5214 48.647 85.0815C49.4097 74.9281 51.5485 64.4872 50.0666 56.398C48.9189 55.8756 47.7001 55.468 46.4285 55.1874L46.4284 55.1871ZM40.3028 54.8259C40.8557 65.3369 38.4854 77.2791 40.0039 87.0519C41.021 87.0446 42.0533 86.9582 43.092 86.7905C42.3251 76.4848 44.6686 64.6462 43.5018 54.7753C42.4533 54.7077 41.3833 54.7225 40.3024 54.8257L40.3028 54.8259Z" fill="url(#paint17_linear_2447_37647)"/>
</g>
<g style="mix-blend-mode:screen" opacity="0.5">
<path d="M41.5184 84.2394C41.5096 83.8217 40.2203 84.1757 38.425 84.2342C36.63 84.2926 36.3468 84.4055 36.3558 84.8241C36.3647 85.2417 36.6616 85.8056 38.4575 85.7467C40.2524 85.6877 41.527 84.6571 41.5184 84.2394Z" fill="#C5E7FF"/>
</g>
<g style="mix-blend-mode:screen" opacity="0.7">
<path d="M51.7516 59.2051C52.3552 61.4577 46.4487 62.5432 39.3161 64.4544C32.1835 66.3656 26.5246 68.379 25.921 66.1264C25.3175 63.8738 29.9971 58.2094 37.1306 56.298C44.2641 54.3866 51.1482 56.9531 51.7516 59.2051Z" fill="#008FF8"/>
</g>
<g style="mix-blend-mode:screen">
<path d="M29.7793 63.4234C30.3192 63.8704 30.2489 64.819 29.6218 65.5417C28.9945 66.2651 28.0478 66.4891 27.5072 66.0419C26.9664 65.5952 27.0372 64.647 27.6644 63.9237C28.292 63.2005 29.2385 62.9766 29.7793 63.4234Z" fill="#E5F4FE"/>
<path d="M39.4089 57.5622C39.898 58.3689 37.9308 59.3789 35.5838 60.7587C33.2368 62.1385 31.4002 63.3652 30.9113 62.5591C30.4233 61.7527 31.4675 59.2189 33.8144 57.8391C36.1607 56.4591 38.9202 56.7557 39.4089 57.5622Z" fill="#E5F4FE"/>
</g>
<g style="mix-blend-mode:screen" opacity="0.6">
<path d="M24.4738 75.3296C23.3735 71.2231 23.8682 67.0533 25.5834 63.4417C23.2177 67.0633 22.3182 71.394 23.4465 75.6049C24.5748 79.8158 27.5192 83.1166 31.3789 85.0706C28.0874 82.7996 25.5741 79.4358 24.4738 75.3296Z" fill="#C5E7FF"/>
</g>
<g style="mix-blend-mode:multiply">
<path d="M50.8916 56.8008C53.847 59.2149 56.1115 62.5683 57.1836 66.5692C58.2556 70.5701 57.9713 74.6068 56.6188 78.1752C58.9051 74.5872 59.7627 70.3237 58.6513 66.1759C57.5399 62.0281 54.6652 58.765 50.8916 56.8008Z" fill="#E5F4FE"/>
</g>
<g style="mix-blend-mode:screen" opacity="0.6">
<path d="M50.2236 58.532C52.2549 60.7585 53.9035 63.7403 54.8301 67.1986C55.7568 70.657 55.82 74.0635 55.1742 77.0077C56.4145 74.1036 56.7033 70.5396 55.7426 66.9541C54.7818 63.3687 52.7498 60.4268 50.2236 58.532Z" fill="#C5E7FF"/>
</g>
<path d="M-2.15625 11.7986C-1.02089 8.96213 3.0664 3.23242 10.3327 3.0055C19.4156 2.72185 25.3762 13.4874 25.3762 19.1675C25.3762 23.9834 21.6863 28.8175 16.5772 27.9666C11.4681 27.1156 9.48118 21.4427 10.3327 18.0389C11.4681 13.5005 18.8479 3.57277 31.9045 7.26021C42.9516 10.3801 45.5888 22.2041 44.6773 27.9666C43.8258 33.35 39.4432 39.4103 35.0267 43" stroke="#008FF8" stroke-width="5" stroke-linecap="round"/>
<defs>
<linearGradient id="paint0_linear_2447_37647" x1="71.896" y1="62.8082" x2="55.2621" y2="67.2652" gradientUnits="userSpaceOnUse">
<stop stop-color="#E5F4FE"/>
<stop offset="0.390625" stop-color="#E5F4FE"/>
<stop offset="1" stop-color="#C5E7FF"/>
</linearGradient>
<linearGradient id="paint1_linear_2447_37647" x1="64.5813" y1="65.089" x2="64.822" y2="67.7149" gradientUnits="userSpaceOnUse">
<stop stop-color="white" stop-opacity="0"/>
<stop offset="0.536458" stop-color="white" stop-opacity="0.7"/>
<stop offset="1" stop-color="white" stop-opacity="0"/>
</linearGradient>
<linearGradient id="paint2_linear_2447_37647" x1="60.6722" y1="54.7444" x2="66.2249" y2="60.9379" gradientUnits="userSpaceOnUse">
<stop stop-color="white"/>
<stop offset="0.489583" stop-color="white"/>
<stop offset="0.807292" stop-color="white" stop-opacity="0"/>
</linearGradient>
<linearGradient id="paint3_linear_2447_37647" x1="64.6845" y1="51.5407" x2="52.5871" y2="54.7822" gradientUnits="userSpaceOnUse">
<stop stop-color="#C5E7FF" stop-opacity="0"/>
<stop offset="1" stop-color="#C5E7FF"/>
</linearGradient>
<linearGradient id="paint4_linear_2447_37647" x1="70.294" y1="60.3894" x2="57.7429" y2="63.7524" gradientUnits="userSpaceOnUse">
<stop stop-color="#C5E7FF" stop-opacity="0"/>
<stop offset="1" stop-color="#C5E7FF"/>
</linearGradient>
<linearGradient id="paint5_linear_2447_37647" x1="57.2008" y1="67.2189" x2="68.9958" y2="64.0585" gradientUnits="userSpaceOnUse">
<stop stop-color="#2CA6FF"/>
<stop offset="0.875" stop-color="#2CA6FF" stop-opacity="0"/>
</linearGradient>
<linearGradient id="paint6_linear_2447_37647" x1="55.1028" y1="66.6746" x2="63.31" y2="64.6418" gradientUnits="userSpaceOnUse">
<stop stop-color="#2CA6FF"/>
<stop offset="0.927083" stop-color="#2CA6FF" stop-opacity="0"/>
</linearGradient>
<linearGradient id="paint7_linear_2447_37647" x1="66.4014" y1="77.5505" x2="66.0277" y2="67.3524" gradientUnits="userSpaceOnUse">
<stop stop-color="#C5E7FF"/>
<stop offset="1" stop-color="#C5E7FF" stop-opacity="0"/>
</linearGradient>
<linearGradient id="paint8_linear_2447_37647" x1="10.2272" y1="79.332" x2="26.8611" y2="74.875" gradientUnits="userSpaceOnUse">
<stop stop-color="#E5F4FE"/>
<stop offset="0.390625" stop-color="#E5F4FE"/>
<stop offset="1" stop-color="#C5E7FF"/>
</linearGradient>
<linearGradient id="paint9_linear_2447_37647" x1="17.7016" y1="77.6505" x2="18.8062" y2="80.045" gradientUnits="userSpaceOnUse">
<stop stop-color="white" stop-opacity="0"/>
<stop offset="0.536458" stop-color="white" stop-opacity="0.7"/>
<stop offset="1" stop-color="white" stop-opacity="0"/>
</linearGradient>
<linearGradient id="paint10_linear_2447_37647" x1="15.9157" y1="66.7371" x2="14.2037" y2="74.8772" gradientUnits="userSpaceOnUse">
<stop stop-color="white"/>
<stop offset="0.489583" stop-color="white"/>
<stop offset="0.807292" stop-color="white" stop-opacity="0"/>
</linearGradient>
<linearGradient id="paint11_linear_2447_37647" x1="10.8389" y1="65.9688" x2="22.9363" y2="62.7274" gradientUnits="userSpaceOnUse">
<stop stop-color="#C5E7FF" stop-opacity="0"/>
<stop offset="1" stop-color="#C5E7FF"/>
</linearGradient>
<linearGradient id="paint12_linear_2447_37647" x1="10.4053" y1="76.4366" x2="22.9563" y2="73.0735" gradientUnits="userSpaceOnUse">
<stop stop-color="#C5E7FF" stop-opacity="0"/>
<stop offset="1" stop-color="#C5E7FF"/>
</linearGradient>
<linearGradient id="paint13_linear_2447_37647" x1="25.1595" y1="75.8048" x2="13.3646" y2="78.9652" gradientUnits="userSpaceOnUse">
<stop stop-color="#2CA6FF"/>
<stop offset="0.875" stop-color="#2CA6FF" stop-opacity="0"/>
</linearGradient>
<linearGradient id="paint14_linear_2447_37647" x1="26.7036" y1="74.2842" x2="18.5796" y2="76.6273" gradientUnits="userSpaceOnUse">
<stop stop-color="#2CA6FF"/>
<stop offset="0.927083" stop-color="#2CA6FF" stop-opacity="0"/>
</linearGradient>
<linearGradient id="paint15_linear_2447_37647" x1="22.3565" y1="89.3525" x2="17.5811" y2="80.3339" gradientUnits="userSpaceOnUse">
<stop stop-color="#C5E7FF"/>
<stop offset="1" stop-color="#C5E7FF" stop-opacity="0"/>
</linearGradient>
<linearGradient id="paint16_linear_2447_37647" x1="36.9173" y1="55.4326" x2="45.1995" y2="86.3422" gradientUnits="userSpaceOnUse">
<stop stop-color="#C5E7FF"/>
<stop offset="0.15625" stop-color="#E5F4FE"/>
<stop offset="0.5625" stop-color="#E5F4FE"/>
<stop offset="0.817708" stop-color="#E5F4FE"/>
<stop offset="1" stop-color="#C5E7FF"/>
</linearGradient>
<linearGradient id="paint17_linear_2447_37647" x1="37.2679" y1="55.3389" x2="45.547" y2="86.2367" gradientUnits="userSpaceOnUse">
<stop stop-color="white"/>
<stop offset="0.46875" stop-color="#E5F4FE"/>
<stop offset="0.994792" stop-color="white"/>
</linearGradient>
</defs>
</svg>
